<svg width="224" height="72" viewBox="0 0 224 72" fill="none" xmlns="http://www.w3.org/2000/svg">
    <path d="M16.5765 11.2043V29.9059H16.7667C18.173 22.9516 21.8212 18.629 29.9736 18.629H31.3798C41.2102 18.629 47.0188 25.5833 47.0188 38.3669V45.8871C47.0188 58.8548 41.7741 66 31.9437 66H30.4355C22.6636 66 18.635 61.207 16.7599 55.0981H16.5765V59.9866C16.5765 63.1842 14.2327 65.8159 11.0533 65.8159H5.52323C2.33701 65.8091 0 63.1774 0 59.9798V11.2043C0 7.63172 2.43212 5 5.89688 5H10.5777C14.0425 5 16.5765 7.63172 16.5765 11.2043ZM169.216 18.8131H140.839C137.374 18.8131 135.03 21.3494 135.03 24.4515V28.8696C135.03 31.9717 137.184 34.508 141.213 34.508H147.395C150.486 34.508 152.83 34.133 154.515 33.5671L154.705 33.758L138.407 47.9529C135.689 50.3051 134.847 52.555 134.847 55.2822V59.7957C134.847 63.0819 137.191 65.8091 140.656 65.8091H169.216C172.681 65.8091 175.025 63.2728 175.025 60.1707V55.4731C175.025 52.371 172.871 49.8347 168.842 49.8347H161.818C158.448 49.8347 156.009 50.3051 154.229 50.9597L154.039 50.7687L171.363 36.6693C174.175 34.4125 175.018 32.0672 175.018 29.34V24.8265C175.025 21.5403 172.681 18.8131 169.216 18.8131ZM200.406 50.2983C194.787 50.2983 192.444 47.9461 192.444 42.3077C192.444 36.6693 194.787 34.3171 200.406 34.3171C206.024 34.3171 208.368 36.6693 208.368 42.3077C208.368 47.9461 206.024 50.2983 200.406 50.2983ZM176.805 39.3964V45.2258C176.805 57.9139 184.855 65.9932 198.436 65.9932H202.369C215.95 65.9932 224 57.9139 224 45.2258V39.3964C224 26.7083 215.95 18.629 202.369 18.629H198.436C184.855 18.629 176.805 26.7083 176.805 39.3964ZM31.373 42.3077C31.373 36.6693 29.0292 34.3171 23.4109 34.3171C17.7926 34.3171 15.639 36.6693 15.639 42.3077C15.639 47.9461 17.7926 50.1074 23.4109 50.1074C29.0292 50.1074 31.373 47.9529 31.373 42.3077ZM100.947 25.0174V59.9798C100.947 63.1774 103.291 65.8091 106.47 65.8091H111.993C115.179 65.8091 117.516 63.1774 117.516 59.9798V41.2782C117.516 36.2057 119.575 34.5148 124.446 34.5148H127.632C130.445 34.5148 132.503 32.1626 132.503 29.4423V23.5243C132.503 20.988 131.002 18.8268 127.727 18.8268H126.695C121.26 18.8268 119.391 21.9289 118.454 26.4424L117.707 29.9195H117.516V25.0311C117.516 21.4585 114.894 18.8268 111.524 18.8268H106.844C103.386 18.8131 100.947 21.4448 100.947 25.0174ZM73.8877 50.2983C68.2693 50.2983 65.9255 47.9461 65.9255 42.3077C65.9255 36.6693 68.2693 34.3171 73.8877 34.3171C79.506 34.3171 81.8498 36.6693 81.8498 42.3077C81.8498 47.9461 79.506 50.2983 73.8877 50.2983ZM50.2865 39.3964V45.2258C50.2865 57.9139 58.337 65.9932 71.9175 65.9932H75.851C89.4315 65.9932 97.482 57.9139 97.482 45.2258V39.3964C97.482 26.7083 89.4315 18.629 75.851 18.629H71.9175C58.3438 18.629 50.2865 26.7083 50.2865 39.3964Z" fill="#0048FF"/>
</svg>
